<?xml version="1.0" standalone="no"?>
<!DOCTYPE svg PUBLIC "-//W3C//DTD SVG 20010904//EN"
 "http://www.w3.org/TR/2001/REC-SVG-20010904/DTD/svg10.dtd">
<svg version="1.0" xmlns="http://www.w3.org/2000/svg"
 width="798.000000pt" height="798.000000pt" viewBox="0 0 798.000000 798.000000"
 preserveAspectRatio="xMidYMid meet">
<metadata>
Created by potrace 1.11, written by Peter Selinger 2001-2013
</metadata>
<g transform="translate(0.000000,798.000000) scale(0.100000,-0.100000)"
fill="#000000" stroke="none">
<path d="M4180 6610 l0 -380 373 0 c206 0 376 2 378 4 2 2 3 173 1 380 l-2
376 -375 0 -375 0 0 -380z"/>
<path d="M3800 5163 c-122 -5 -373 -33 -475 -53 -27 -5 -75 -14 -105 -20 -30
-6 -72 -14 -93 -17 -20 -3 -40 -9 -43 -14 -3 -5 -18 -9 -35 -9 -16 0 -37 -4
-47 -9 -9 -5 -37 -15 -62 -21 -82 -23 -115 -33 -135 -41 -11 -4 -69 -24 -130
-44 -106 -34 -140 -47 -177 -66 -10 -5 -25 -9 -33 -9 -8 0 -15 -4 -15 -10 0
-5 -6 -10 -14 -10 -7 0 -42 -14 -77 -32 -147 -72 -246 -122 -276 -140 -53 -29
-99 -55 -124 -70 -12 -7 -32 -21 -43 -30 -11 -10 -26 -18 -33 -18 -7 0 -13 -4
-13 -10 0 -5 -5 -10 -11 -10 -12 0 -202 -130 -207 -142 -2 -4 -8 -8 -13 -8 -6
0 -20 -9 -32 -21 -12 -11 -49 -41 -82 -66 -164 -123 -522 -477 -604 -597 -8
-12 -18 -23 -21 -26 -3 -3 -19 -23 -35 -45 -17 -22 -32 -42 -35 -45 -3 -3 -17
-21 -30 -40 -13 -19 -30 -41 -37 -48 -7 -7 -13 -17 -13 -22 0 -5 -6 -15 -14
-23 -15 -14 -122 -175 -142 -212 -17 -32 -59 -106 -91 -160 -16 -27 -37 -68
-46 -90 -10 -22 -22 -47 -27 -55 -6 -8 -15 -26 -21 -40 -6 -14 -23 -52 -39
-85 -15 -33 -34 -78 -41 -100 -8 -22 -17 -42 -20 -45 -3 -3 -12 -26 -20 -52
-7 -27 -17 -48 -21 -48 -4 0 -8 -11 -8 -24 0 -14 -4 -28 -10 -31 -5 -3 -10
-17 -10 -30 0 -13 -5 -27 -10 -30 -6 -3 -10 -17 -10 -31 0 -13 -4 -24 -10 -24
-5 0 -10 -13 -10 -29 0 -17 -5 -33 -10 -36 -6 -3 -10 -19 -10 -35 0 -16 -4
-31 -9 -34 -5 -3 -11 -18 -14 -33 -3 -16 -11 -50 -17 -78 -7 -27 -14 -61 -16
-75 -2 -14 -8 -45 -14 -70 -18 -77 -44 -237 -61 -380 -6 -47 -13 -304 -15
-573 l-5 -487 3973 2 3973 3 3 290 c4 285 -9 613 -29 770 -25 193 -58 379 -90
500 -42 162 -45 169 -75 255 -14 41 -29 89 -34 105 -32 123 -219 526 -319 690
-90 145 -129 205 -190 290 -309 431 -721 816 -1163 1084 -69 42 -88 58 -90 79
-3 28 -6 30 -178 117 -174 87 -191 95 -206 95 -8 0 -14 5 -14 10 0 6 -7 10
-15 10 -8 0 -23 4 -33 9 -9 5 -28 13 -42 18 -14 6 -36 15 -50 21 -14 6 -52 18
-85 28 -33 9 -64 21 -70 26 -5 4 -19 8 -31 8 -13 0 -26 5 -29 10 -3 6 -17 10
-30 10 -13 0 -27 5 -30 10 -3 6 -19 10 -35 10 -16 0 -32 5 -35 10 -3 6 -19 10
-35 10 -16 0 -32 5 -35 10 -3 6 -21 10 -40 10 -19 0 -36 4 -39 9 -3 5 -23 11
-43 15 -21 3 -56 8 -78 11 -22 4 -49 10 -60 15 -11 5 -40 11 -65 14 -25 3 -76
10 -115 15 -166 23 -384 39 -430 31 -26 -5 -281 -5 -290 0 -5 3 -39 4 -75 3z
m433 -971 c282 -85 495 -305 567 -586 27 -108 27 -270 0 -386 -70 -291 -296
-517 -595 -595 -80 -20 -300 -20 -380 0 -138 36 -250 96 -350 188 -178 161
-265 360 -265 603 0 218 75 401 228 558 121 124 243 191 417 232 86 20 289 12
378 -14z m-1595 -2559 l-3 -298 -294 -3 c-229 -2 -296 1 -303 10 -9 16 -11
572 -1 581 3 4 141 7 305 7 l298 0 -2 -297z m3370 17 c1 -151 0 -285 -3 -298
l-5 -22 -298 2 -297 3 -3 298 -2 297 302 -2 303 -3 3 -275z"/>
<path d="M3940 3968 c-61 -32 -83 -66 -88 -135 -3 -49 0 -64 20 -93 37 -55 83
-80 143 -80 60 0 106 25 143 80 20 29 23 44 20 93 -3 36 -12 67 -24 85 -25 34
-98 72 -139 72 -17 0 -51 -10 -75 -22z"/>
<path d="M3800 3510 l0 -40 50 0 50 0 0 -240 0 -240 -50 0 -50 0 0 -45 0 -45
215 0 215 0 0 45 0 45 -50 0 -51 0 3 280 3 280 -167 0 -168 0 0 -40z"/>
</g>
</svg>
